<svg xmlns="http://www.w3.org/2000/svg"  viewBox="0 0 48 48" width="48px" height="48px"><path fill="#B0BEC5" d="M42 42L17.017 42 17 40 42 40z"/><path fill="#607D8B" d="M30.749,32.749l12.021-12.02c0.781-0.781,0.781-2.048,0-2.829L31.456,6.586c-0.781-0.781-2.048-0.781-2.829,0l-12.021,12.02L30.749,32.749z"/><path fill="#546E7A" d="M39.728,23.771l3.042-3.042c0.781-0.781,0.781-2.048,0-2.829L31.456,6.586c-0.781-0.781-2.048-0.781-2.829,0l-3.043,3.042L39.728,23.771z"/><path fill="#CFD8DC" d="M21.367,42l9.382-9.251L16.606,18.606L4.586,30.628c-0.781,0.78-0.781,2.047,0,2.828L13,42H21.367z"/></svg>