<svg xmlns="http://www.w3.org/2000/svg" x="0px" y="0px" width="48" height="48" viewBox="0 0 48 48">
<path fill="#424242" d="M40.956,14h-9.912v-1c0-1.657,1.343-3,3-3h3.912c1.657,0,3,1.343,3,3V14z"></path><path fill="#424242" d="M16.956,14H7.044v-1c0-1.657,1.343-3,3-3h3.912c1.657,0,3,1.343,3,3V14z"></path><path fill="#4fc3f7" d="M1,18h46v8.647C47,33.958,42.398,39,36.048,39H11.952C5.602,39,1,33.958,1,26.647V18z"></path><path fill="#757575" d="M47,18c0-3.334-2.824-6-6-6H7c-3.176,0-6,2.666-6,6"></path><circle cx="13.5" cy="26.5" r="4.5" fill="#424242" fill-rule="evenodd" clip-rule="evenodd"></circle><circle cx="28" cy="23" r="2" fill="#424242" fill-rule="evenodd" clip-rule="evenodd"></circle><circle cx="24" cy="27" r="2" fill="#424242" fill-rule="evenodd" clip-rule="evenodd"></circle><circle cx="32" cy="27" r="2" fill="#424242" fill-rule="evenodd" clip-rule="evenodd"></circle><circle cx="28" cy="31" r="2" fill="#424242" fill-rule="evenodd" clip-rule="evenodd"></circle><rect width="2" height="2" x="36" y="20" fill="#424242"></rect>
</svg>