<svg xmlns="http://www.w3.org/2000/svg" id="Layer_1" viewBox="0 0 48 48">
  <defs>
    <style>
      .st2{fill:#424242}
    </style>
  </defs>
  <path d="M31.72 41.46v-9.91h-1c1.66 0 3 1.34 3 3v3.91c0 1.66-1.34 3-3 3zM31.72 17.46V7.54h-1c1.66 0 3 1.34 3 3v3.91c0 1.66-1.34 3-3 3h1Z" class="st2"/>
  <path fill="#fc5e5e" d="M28.72 1.5v46h-3.87c-7.31 0-12.35-4.6-12.35-10.95v-24.1C12.5 6.1 17.54 1.5 24.85 1.5z"/>
  <path fill="#757575" d="M28.72 47.5c2.4 0 4-.82 4-4v-38c0-3.18-1.6-4-4-4"/>
  <circle cx="21.33" cy="14.13" r="4.5" class="st2"/>
  <circle cx="25.33" cy="28.63" r="2" class="st2"/>
  <circle cx="21.33" cy="24.63" r="2" class="st2"/>
  <circle cx="21.33" cy="32.63" r="2" class="st2"/>
  <circle cx="17.33" cy="28.63" r="2" class="st2"/>
  <path d="M25.32 37.08v2h-2v-2z" class="st2"/>
</svg>