<svg xmlns="http://www.w3.org/2000/svg" id="Layer_1" viewBox="0 0 48 48">
  <defs>
    <style>
      .st2{fill:#424242}
    </style>
  </defs>
  <path d="M14.5 7.54v9.91h1c-1.66 0-3-1.34-3-3v-3.91c0-1.66 1.34-3 3-3zM14.5 31.54v9.91h1c-1.66 0-3-1.34-3-3v-3.91c0-1.66 1.34-3 3-3z" class="st2"/>
  <path fill="#4fc3f7" d="M17.5 47.5v-46h3.87c7.31 0 12.35 4.6 12.35 10.95v24.1c0 6.35-5.04 10.95-12.35 10.95z"/>
  <path fill="#757575" d="M17.5 1.5c-2.4 0-4 .82-4 4v38c0 3.18 1.6 4 4 4"/>
  <circle cx="24.89" cy="29.59" r="4.5" class="st2"/>
  <circle cx="20.89" cy="15.95" r="2" class="st2"/>
  <circle cx="24.89" cy="19.95" r="2" class="st2"/>
  <circle cx="24.89" cy="11.95" r="2" class="st2"/>
  <circle cx="28.89" cy="15.95" r="2" class="st2"/>
  <circle cx="21.99" cy="38.53" r="1.3" class="st2"/>
</svg>