<svg xmlns="http://www.w3.org/2000/svg" x="0px" y="0px" width="48" height="48" viewBox="0 0 48 48">
<path fill="#ffeb3b" d="M24,6c0.18,0,0.626,0.049,0.893,0.504l19.968,34.005c0.249,0.424,0.111,0.795,0.006,0.978	C44.778,41.641,44.513,42,43.968,42H4.032c-0.546,0-0.81-0.359-0.898-0.514c-0.105-0.183-0.244-0.554,0.006-0.978L23.107,6.504	C23.374,6.049,23.82,6,24,6"></path><circle cx="24" cy="29" r="4" fill="#455a64"></circle><polygon fill="#455a64" points="37.516,28 14,28 14,30 38.69,30"></polygon><rect width="2" height="20" x="23" y="19" fill="#455a64"></rect><rect width="2" height="18" x="23" y="20" fill="#455a64" transform="rotate(-45.001 24 29)"></rect><rect width="18" height="2" x="15" y="28" fill="#455a64" transform="rotate(-45.001 23.998 29)"></rect><path fill="#607d8b" d="M24,7l0.03,0.01L43.968,41L4.002,41.015l19.966-34.01C23.971,7.004,23.983,7,24,7 M24,4	c-1.017,0-2.034,0.497-2.617,1.491L1.415,39.496C0.241,41.494,1.697,44,4.032,44h39.936c2.335,0,3.791-2.506,2.617-4.504	L26.617,5.491C26.034,4.497,25.017,4,24,4L24,4z"></path>
</svg>