<svg xmlns="http://www.w3.org/2000/svg"  viewBox="0 0 48 48" width="48px" height="48px"><path fill="#311B92" d="M19,42c0,0,0.8-2.3,1.2-3.9C20.6,37,21.9,36,24,36s3.5,1,3.7,2.1c0.3,1.2,0.5,1.9,1.2,3.9H19z"/><path fill="#7E57C2" d="M35,13c0,0-1.7,8.3-2,10s-4.1,5-9,5s-8.4-3.1-9-5s-2-10-2-10H35z"/><path fill="#5E35B1" d="M41,18v12c0,2.8-9.7,6-11,6H18c-0.9,0-11-3.1-11-6V18c0-1.1,0.9-2,2-2h4.5c0.1,0.6,0.2,1.3,0.4,2H12v8l5,4h14l5-4v-8h-2c0.1-0.7,0.3-1.4,0.4-2H39C40.1,16,41,16.9,41,18z M24,4c6.1,0,11,4,11,9s-4.9,9-11,9s-11-4-11-9S17.9,4,24,4L24,4z M11,42v2h26v-2c-4-2.9-10-3-10-3h-6C21,39,15,39,11,42z"/><path fill="#FFC107" d="M24,6c-5,0-9,3.1-9,7s4,7,9,7s9-3.1,9-7S29,6,24,6z"/><path fill="#FFF176" d="M24 12A4 3 0 1 0 24 18A4 3 0 1 0 24 12Z"/></svg>