<svg xmlns="http://www.w3.org/2000/svg"  viewBox="0 0 48 48" width="48px" height="48px"><path fill="#FFC107" d="M44,40c0,2.2-5.4,4-12,4c-6.1,0-11.1-1.5-11.9-3.5C20,40.4,6,10,6,10l5-3c0,0,30.5,30.1,32.2,31.6C43.7,39,44,39.5,44,40z"/><path fill="#455A64" d="M5.4 14L5.9 10 10.3 6.5 14.2 6.9z"/><path fill="#546E7A" d="M10.3,6.5L5.9,10L4.4,8.3C3.7,7.4,3.9,6.2,4.7,5.5l1.3-1c0.9-0.7,2.1-0.6,2.8,0.3L10.3,6.5z"/><path fill="#607D8B" d="M7.3 13.7L5.9 10 10.3 6.5 13.5 8.7z"/><path fill="#FFEB3B" d="M32 36A12 4 0 1 0 32 44A12 4 0 1 0 32 36Z"/></svg>