<svg xmlns="http://www.w3.org/2000/svg" viewBox="0 0 48 48">
  <path d="M6 42V6h36v36zm8.78-30.19c0-1.41-1.14-2.55-2.55-2.55s-2.55 1.14-2.55 2.55 1.14 2.55 2.55 2.55 2.55-1.14 2.55-2.55" style="fill:#455a64;fill-rule:evenodd"/>
  <path d="M23.8 23.18" style="fill:none"/>
  <path d="M27.49 17.03s-.02 0-.03.01c-.04.02-.07.03-.11.05l-3.44 1.98 4 2.32v-4.46c-.15 0-.29.03-.43.09Z" style="opacity:.2;fill:#666"/>
  <path d="m20.44 30.96 3.64-2.1-4.01-2.31v4.51c.14 0 .26-.04.37-.1" style="fill:#72706f;opacity:.2"/>
  <path d="m32.01 28.59-8.21-4.74-.39-.22-7.39-4.27c-.05.13-.08.27-.08.42v8.58c0 .27.15.52.38.65l3.38 1.97c.12.06.25.09.37.09v-4.51l7.66 4.41s.05.02.07.03h.02c.22.09.4.02.61-.11l1.28-.73 2.04-1.22c.12-.09.21-.21.26-.35" style="opacity:.2"/>
  <path d="M32.05 23v-3.22c0-.41-.22-.79-.59-.99l-2.97-1.72c-.18-.1-.38-.15-.58-.14v4.46l-6.7-3.89-.75-.42c-.32-.18-.61-.2-.95-.04 0 0-.02 0-.02.01-.04.02-.08.04-.11.06l-1.18.69-1.69.98c-.23.13-.41.34-.5.57l7.39 4.27.39.22L32 28.58c.04-.15.04-.43.04-.43v-5.16Z" style="opacity:.2;fill:#999"/>
</svg>
