<svg xmlns="http://www.w3.org/2000/svg"  viewBox="0 0 48 48" width="48px" height="48px" baseProfile="basic"><path fill="#64b5f6" d="M24,44C12.972,44,4,35.028,4,24S12.972,4,24,4s20,8.972,20,20S35.028,44,24,44z M24,6	C14.075,6,6,14.075,6,24s8.075,18,18,18s18-8.075,18-18S33.925,6,24,6z"/><path fill="#64b5f6" d="M24,37c-7.168,0-13-5.832-13-13s5.832-13,13-13s13,5.832,13,13S31.168,37,24,37z M24,13	c-6.065,0-11,4.935-11,11s4.935,11,11,11s11-4.935,11-11S30.065,13,24,13z"/><path fill="#64b5f6" d="M24,31c-3.86,0-7-3.14-7-7s3.14-7,7-7s7,3.14,7,7S27.86,31,24,31z M24,19c-2.757,0-5,2.243-5,5	s2.243,5,5,5s5-2.243,5-5S26.757,19,24,19z"/><circle cx="40" cy="14" r="2" fill="#0d47a1"/><circle cx="12" cy="39" r="3" fill="#5e35b1"/><circle cx="33" cy="32" r="3" fill="#0d47a1"/><circle cx="14" cy="8" r="2" fill="#5e35b1"/><circle cx="12" cy="25" r="2" fill="#0d47a1"/><circle cx="24" cy="24" r="3.094" fill="#ffe082"/></svg>